<?xml version="1.0" encoding="UTF-8" standalone="yes"?>
<!-- Created with sK1/UniConvertor (http://sk1project.org/) -->
<svg xmlns="http://www.w3.org/2000/svg" xmlns:xlink="http://www.w3.org/1999/xlink"
  width="595.276pt" height="841.89pt" viewBox="0 0 595.276 841.89"
  fill-rule="evenodd">
<g>
<g>
<path style="stroke:none; fill:#242423" d="M 140.197 363.919L 208.551 363.919C 221.128 363.919 231.414 374.205 231.414 386.783L 231.414 455.137C 231.414 465.951 223.731 475.343 213.165 477.53L 211.713 477.83L 211.713 465.133L 212.465 464.827C 216.391 463.227 219.006 459.395 219.006 455.137L 219.006 386.783C 219.006 381.036 214.299 376.328 208.551 376.328L 140.197 376.328C 134.449 376.328 129.742 381.036 129.742 386.783L 129.742 448.838L 117.333 448.838L 117.333 386.783C 117.333 374.206 127.619 363.919 140.197 363.919z"/>
<path style="stroke:none; fill:#242423" d="M 161.1 465.592L 170.716 465.592L 170.716 432.582L 183.123 432.582L 183.123 465.592L 192.74 465.592L 192.74 432.576L 205.149 432.576L 205.149 478.001L 140.197 478.001C 128.222 478.001 118.2 468.632 117.387 456.692L 117.3 455.403L 129.69 455.403L 129.825 456.458C 130.488 461.649 134.957 465.592 140.197 465.592L 148.692 465.592L 148.692 432.573L 161.1 432.573L 161.1 465.592z"/>
<path style="stroke:none; fill:#242423" d="M 453.969 406.096L 459.614 406.096L 459.614 440.254L 477.297 440.254L 477.297 445.38L 453.969 445.38L 453.969 406.096zM 426.052 410.877C 421.559 410.877 417.872 412.279 414.983 415.092C 412.093 417.904 410.643 421.495 410.643 425.863C 410.643 430.106 412.093 433.629 414.992 436.442C 417.892 439.256 421.52 440.657 425.879 440.657C 430.256 440.657 433.914 439.226 436.842 436.356C 439.771 433.486 441.229 429.914 441.229 425.642C 441.229 421.475 439.771 417.981 436.842 415.14C 433.914 412.298 430.314 410.877 426.052 410.877zM 425.84 405.52C 431.908 405.52 436.957 407.44 440.99 411.29C 445.031 415.13 447.047 419.959 447.047 425.748C 447.047 431.546 445.012 436.347 440.942 440.139C 436.861 443.94 431.725 445.841 425.533 445.841C 419.61 445.841 414.685 443.94 410.739 440.139C 406.794 436.347 404.826 431.585 404.826 425.863C 404.826 419.988 406.813 415.13 410.778 411.29C 414.752 407.44 419.773 405.52 425.84 405.52zM 378.636 410.877C 374.144 410.877 370.457 412.279 367.568 415.092C 364.678 417.904 363.228 421.495 363.228 425.863C 363.228 430.106 364.678 433.629 367.577 436.442C 370.476 439.256 374.105 440.657 378.463 440.657C 382.841 440.657 386.499 439.226 389.427 436.356C 392.355 433.486 393.814 429.914 393.814 425.642C 393.814 421.475 392.355 417.981 389.427 415.14C 386.499 412.298 382.899 410.877 378.636 410.877zM 378.425 405.52C 384.492 405.52 389.542 407.44 393.574 411.29C 397.616 415.13 399.632 419.959 399.632 425.748C 399.632 431.546 397.597 436.347 393.526 440.139C 389.446 443.94 384.31 445.841 378.118 445.841C 372.195 445.841 367.27 443.94 363.324 440.139C 359.379 436.347 357.411 431.585 357.411 425.863C 357.411 419.988 359.397 415.13 363.362 411.29C 367.337 407.44 372.358 405.52 378.425 405.52zM 344.854 406.096L 350.498 406.096L 350.498 445.38L 344.854 445.38L 344.854 428.272L 322.792 428.272L 322.792 445.38L 317.147 445.38L 317.147 406.096L 322.792 406.096L 322.792 423.088L 344.854 423.088L 344.854 406.096zM 310.235 436.279L 310.235 442.442C 306.117 444.708 301.355 445.841 295.95 445.841C 291.572 445.841 287.847 444.958 284.795 443.191C 281.742 441.425 279.323 438.996 277.537 435.895C 275.761 432.795 274.868 429.443 274.868 425.834C 274.868 420.103 276.904 415.284 280.983 411.376C 285.064 407.469 290.094 405.52 296.075 405.52C 300.203 405.52 304.792 406.595 309.832 408.746L 309.832 414.794C 305.234 412.182 300.741 410.877 296.354 410.877C 291.851 410.877 288.117 412.298 285.141 415.149C 282.174 417.991 280.686 421.552 280.686 425.834C 280.686 430.154 282.145 433.706 285.073 436.49C 287.992 439.265 291.735 440.657 296.286 440.657C 301.048 440.657 305.704 439.198 310.235 436.279zM 259.729 428.887L 255.457 426.295C 252.769 424.653 250.858 423.04 249.725 421.456C 248.593 419.872 248.026 418.039 248.026 415.975C 248.026 412.874 249.101 410.359 251.252 408.42C 253.393 406.49 256.187 405.52 259.614 405.52C 262.897 405.52 265.911 406.442 268.647 408.294L 268.647 414.688C 265.815 411.952 262.772 410.589 259.508 410.589C 257.675 410.589 256.167 411.012 254.987 411.866C 253.805 412.72 253.21 413.805 253.21 415.13C 253.21 416.311 253.642 417.415 254.516 418.442C 255.39 419.469 256.791 420.554 258.721 421.687L 263.012 424.231C 267.803 427.102 270.203 430.759 270.203 435.185C 270.203 438.343 269.147 440.906 267.035 442.884C 264.922 444.852 262.187 445.841 258.807 445.841C 254.929 445.841 251.387 444.641 248.199 442.25L 248.199 435.108C 251.233 438.957 254.756 440.887 258.74 440.887C 260.507 440.887 261.975 440.398 263.146 439.409C 264.318 438.42 264.904 437.191 264.904 435.703C 264.904 433.303 263.175 431.027 259.729 428.887z"/>
<path style="stroke:none; fill:#242423" d="M 247.747 456.039L 250.866 456.039L 250.866 477.746L 247.747 477.746L 247.747 456.039z"/>
<path style="stroke:none; fill:#242423" d="M 272.924 456.039L 275.884 456.039L 275.884 477.746L 273.205 477.746L 258.696 461.031L 258.696 477.746L 255.768 477.746L 255.768 456.039L 258.293 456.039L 272.924 472.897L 272.924 456.039z"/>
<path style="stroke:none; fill:#242423" d="M 294.265 456.039L 297.395 456.039L 288.196 477.842L 287.48 477.842L 278.138 456.039L 281.268 456.039L 287.798 471.285L 294.265 456.039z"/>
<path style="stroke:none; fill:#242423" d="M 299.75 456.039L 312.068 456.039L 312.068 458.808L 302.869 458.808L 302.869 465.428L 311.75 465.428L 311.75 468.198L 302.869 468.198L 302.869 474.977L 312.354 474.977L 312.354 477.746L 299.75 477.746L 299.75 456.039z"/>
<path style="stroke:none; fill:#242423" d="M 321.049 468.632L 318.688 467.2C 317.203 466.293 316.147 465.402 315.521 464.526C 314.895 463.651 314.582 462.638 314.582 461.498C 314.582 459.784 315.176 458.394 316.365 457.322C 317.547 456.256 319.091 455.721 320.985 455.721C 322.799 455.721 324.465 456.23 325.977 457.254L 325.977 460.787C 324.412 459.275 322.73 458.522 320.927 458.522C 319.913 458.522 319.081 458.755 318.428 459.227C 317.776 459.699 317.447 460.299 317.447 461.031C 317.447 461.683 317.685 462.293 318.168 462.861C 318.651 463.428 319.425 464.028 320.492 464.654L 322.863 466.06C 325.51 467.646 326.836 469.667 326.836 472.112C 326.836 473.858 326.253 475.274 325.086 476.367C 323.919 477.454 322.407 478.001 320.539 478.001C 318.396 478.001 316.439 477.338 314.678 476.017L 314.678 472.07C 316.354 474.197 318.301 475.263 320.502 475.263C 321.478 475.263 322.29 474.993 322.937 474.446C 323.584 473.9 323.908 473.221 323.908 472.399C 323.908 471.073 322.953 469.815 321.049 468.632z"/>
<path style="stroke:none; fill:#242423" d="M 328.396 456.039L 346.538 456.039L 346.538 458.808L 338.963 458.808L 338.963 477.746L 335.844 477.746L 335.844 458.808L 328.396 458.808L 328.396 456.039z"/>
<path style="stroke:none; fill:#242423" d="M 349.499 456.039L 352.618 456.039L 352.618 477.746L 349.499 477.746L 349.499 456.039z"/>
<path style="stroke:none; fill:#242423" d="M 374.664 456.039L 377.603 456.039L 377.603 477.746L 374.484 477.746L 374.484 460.856L 367.811 469.248L 367.232 469.248L 360.479 460.856L 360.479 477.746L 357.36 477.746L 357.36 456.039L 360.352 456.039L 367.529 464.956L 374.664 456.039z"/>
<path style="stroke:none; fill:#242423" d="M 382.277 456.039L 394.595 456.039L 394.595 458.808L 385.396 458.808L 385.396 465.428L 394.276 465.428L 394.276 468.198L 385.396 468.198L 385.396 474.977L 394.881 474.977L 394.881 477.746L 382.277 477.746L 382.277 456.039z"/>
<path style="stroke:none; fill:#242423" d="M 415.442 456.039L 418.402 456.039L 418.402 477.746L 415.723 477.746L 401.215 461.031L 401.215 477.746L 398.286 477.746L 398.286 456.039L 400.812 456.039L 415.442 472.897L 415.442 456.039z"/>
<path style="stroke:none; fill:#242423" d="M 421.198 456.039L 439.34 456.039L 439.34 458.808L 431.765 458.808L 431.765 477.746L 428.646 477.746L 428.646 458.808L 421.198 458.808L 421.198 456.039z"/>
<path style="stroke:none; fill:#242423" d="M 450.857 455.721C 454.209 455.721 457 456.782 459.228 458.909C 461.461 461.031 462.575 463.699 462.575 466.898C 462.575 470.102 461.451 472.754 459.202 474.85C 456.947 476.95 454.109 478.001 450.687 478.001C 447.414 478.001 444.693 476.95 442.513 474.85C 440.332 472.754 439.245 470.123 439.245 466.961C 439.245 463.715 440.343 461.031 442.534 458.909C 444.73 456.782 447.504 455.721 450.857 455.721zM 450.974 458.68C 448.491 458.68 446.454 459.455 444.857 461.009C 443.26 462.564 442.46 464.548 442.46 466.961C 442.46 469.306 443.26 471.253 444.862 472.807C 446.465 474.361 448.47 475.136 450.878 475.136C 453.297 475.136 455.318 474.346 456.936 472.76C 458.554 471.173 459.361 469.2 459.361 466.839C 459.361 464.537 458.554 462.606 456.936 461.036C 455.318 459.466 453.329 458.68 450.974 458.68z"/>
<path style="stroke:none; fill:#242423" d="M 471.784 468.632L 469.424 467.2C 467.938 466.293 466.883 465.402 466.257 464.526C 465.631 463.651 465.318 462.638 465.318 461.498C 465.318 459.784 465.912 458.394 467.1 457.322C 468.283 456.256 469.827 455.721 471.721 455.721C 473.535 455.721 475.201 456.23 476.713 457.254L 476.713 460.787C 475.148 459.275 473.466 458.522 471.662 458.522C 470.649 458.522 469.816 458.755 469.164 459.227C 468.511 459.699 468.182 460.299 468.182 461.031C 468.182 461.683 468.421 462.293 468.904 462.861C 469.386 463.428 470.161 464.028 471.227 464.654L 473.598 466.06C 476.246 467.646 477.572 469.667 477.572 472.112C 477.572 473.858 476.988 475.274 475.821 476.367C 474.654 477.454 473.142 478.001 471.275 478.001C 469.132 478.001 467.175 477.338 465.413 476.017L 465.413 472.07C 467.09 474.197 469.036 475.263 471.238 475.263C 472.214 475.263 473.026 474.993 473.673 474.446C 474.32 473.9 474.644 473.221 474.644 472.399C 474.644 471.073 473.689 469.815 471.784 468.632z"/>
<path style="stroke:none; fill:#242423" d="M 170.679 398.066L 151.109 398.066L 151.109 402.514L 169.544 402.514L 169.544 408.536L 151.109 408.536L 151.109 416.883L 143.514 416.883L 143.514 392.011L 170.679 392.011L 170.679 398.066z"/>
<path style="stroke:none; fill:#242423" d="M 197.154 400.974L 197.154 400.906C 197.154 399.766 196.806 398.985 196.116 398.562C 195.426 398.141 193.869 397.93 191.44 397.93L 187.015 397.93C 184.421 397.93 182.762 398.243 182.032 398.865C 181.302 399.486 180.937 400.804 180.937 402.816L 180.937 406.272C 180.937 408.068 181.347 409.294 182.174 409.961C 182.995 410.628 184.62 410.965 187.049 410.965L 191.44 410.965C 193.624 410.965 195.129 410.765 195.95 410.372C 196.777 409.978 197.188 409.294 197.188 408.33C 197.188 408.193 197.165 407.971 197.119 407.663C 197.119 407.629 197.119 407.6 197.119 407.578L 188.184 407.578L 188.184 402.548L 205.022 402.548L 205.022 410.714C 205.022 413.057 204.156 414.722 202.422 415.709C 200.695 416.695 197.678 417.191 193.379 417.191L 184.928 417.191C 182.334 417.191 180.418 417.054 179.18 416.775C 177.949 416.496 176.9 416.022 176.045 415.35C 175.041 414.563 174.311 413.588 173.855 412.436C 173.399 411.278 173.17 409.824 173.17 408.062L 173.17 401.277C 173.17 397.713 174.014 395.227 175.702 393.818C 177.39 392.41 180.452 391.703 184.894 391.703L 193.379 391.703C 196.121 391.703 198.14 391.823 199.446 392.068C 200.746 392.313 201.772 392.729 202.519 393.305C 203.295 393.91 203.871 394.719 204.247 395.734C 204.617 396.755 204.806 398.032 204.806 399.572C 204.806 399.937 204.8 400.222 204.794 400.421C 204.794 400.621 204.783 400.804 204.771 400.975L 197.154 400.975L 197.154 400.974z"/>
</g>
</g>
</svg>